<?xml version="1.0" encoding="utf-8"?>
<!-- Generator: Adobe Illustrator 21.1.0, SVG Export Plug-In . SVG Version: 6.00 Build 0)  -->
<svg version="1.1" id="Camada_1" xmlns="http://www.w3.org/2000/svg" xmlns:xlink="http://www.w3.org/1999/xlink" x="0px" y="0px"
	 viewBox="0 0 242.5 92.5" style="enable-background:new 0 0 242.5 92.5;" xml:space="preserve">
<style type="text/css">
	.st0{fill:#FFFFFF;}
</style>
<g>
	<path class="st0" d="M63.9,44.9c0.8-3.6,0.9-6-0.2-10.4c-1.9-6-7.5-11.8-16-12.8c-5.1-0.4-9.9,1.3-13,3.9
		C28.2,30.7,28,36.8,27.6,40c0,0-3.4,8.9-4.8,12.9h3.7v16.6h26.9l-2-7.2H33.8l0-14.8h-1.5C33,45.7,35,40,35,40
		c0.1-0.8,0.1-1.1,0.2-1.8c0.8-4.4,4.3-8.5,9.5-9c2.7-0.5,5.6,0.4,7.5,1.6c2.2,1.5,5.5,5.6,4.8,10.8c-0.7,5.6-4.9,7.9-6.4,8.7
		c2.5,9.2,5.6,19.4,8,28.6H66l-7.4-25.2C60.7,51.9,62.9,48.9,63.9,44.9z"/>
	<path class="st0" d="M71.2,27.9c-1.1-2.8-6.3-10.1-13.9-13.4c-4.6-1.5-7.5-2.8-14.3-2.1c-6.3,0.6-11,3.3-14.5,6
		C21.5,23.8,18.3,32.8,17.7,40c0,0.6-9,21.3-9,21.3l8.3,0v17.5H56l-2.1-7.4H24.4l0-16.7h-4.8c1.5-3.9,6.1-14.8,6.1-14.8
		c0.4-4.1,0.8-7.4,3.1-10.9c3.6-6.4,12.1-11,21-9.1c8.3,1.6,14.2,7.6,16.2,14.7c2.1,7-0.6,15.5-5,19.7l7,24.4h7.2l-6.1-22.6
		C73.1,50.9,76.5,39.8,71.2,27.9z"/>
	<path class="st0" d="M46.1,33c-4,0-7.2,3.3-7.2,7.3c0,4,3.3,7.2,7.2,7.2c4,0,7.3-3.2,7.3-7.2C53.3,36.2,50.1,33,46.1,33z"/>
	<path class="st0" d="M221.4,38.9l-0.8,3.3c-0.1-0.2-0.2-0.3-0.3-0.5c-0.1-0.2-0.2-0.3-0.3-0.5c-0.7-0.9-1.5-1.6-2.6-2.4
		c-1-0.7-2.1-1.1-3.4-1.1v0c-0.1,0-0.2,0-0.2,0c-4.5,0.2-7.8,1.5-10,4.1c-2.1,2.6-3.6,5.4-4.3,8.5c-0.2,0.8-0.3,1.6-0.4,2.4
		c-0.1,0.8-0.2,1.5-0.2,2.2V55c0,0.5,0,1.1,0,1.8c0,0.6,0.1,1.2,0.2,1.8c0.3,1.7,1,3.3,2.1,4.7c1.2,1.4,3.3,2.1,6.4,2.1
		c1,0,2-0.1,2.8-0.3c0.8-0.2,1.6-0.5,2.4-0.9c0.4-0.2,0.7-0.5,1.1-0.7c0.2-0.2,0.4-0.3,0.7-0.6c0.6-0.5,1.2-1.2,1.9-2l-2.6,12.5
		l-0.2,1.1h0.2h9.4l7.7-35.7H221.4z M218.9,50.5c-0.1,0.7-0.2,1.2-0.4,1.7c-0.8,3-1.7,4.9-2.7,5.9c-0.6,0.5-1.2,0.8-1.8,1.1
		c-0.6,0.2-1.2,0.3-1.9,0.3c-1.2,0-2.1-0.4-2.5-1.2c-0.5-0.8-0.7-1.8-0.7-2.9c0-0.3,0-0.5,0-0.8c0-0.3,0-0.5,0.1-0.8
		c0-0.2,0.1-0.5,0.1-0.8c0-0.3,0.1-0.5,0.2-0.8v0.1c0.1-0.5,0.2-1,0.3-1.6c0.1-0.6,0.3-1.2,0.5-1.8c0.5-1.3,1.1-2.4,1.9-3.4
		c0.5-0.7,1.2-1.1,1.9-1.3v0c0.4-0.2,0.8-0.2,1.3-0.2c1.5,0,2.5,0.5,2.9,1.5c0.5,1,0.8,2.1,0.8,3.3C219,49.2,219,49.9,218.9,50.5z"
		/>
	<path class="st0" d="M195.5,29.8c-2.2-1.2-4.6-1.9-7.3-2.1c-0.5,0-0.9,0-1.3-0.1c-0.5,0-0.9,0-1.3-0.1l-3.5,0l-0.5,0v0l-13.2,0
		l-6.9,33.2l-0.8,3.8l0.8,0v0l9.7,0l2.8-12.8l7.6,0v0c0,0,0,0,0.1,0l0.5,0v0c4.4-0.1,8.3-1.3,11.6-3.5c3.4-2.4,5.2-6.3,5.2-11.7
		C198.9,33.2,197.8,31,195.5,29.8z M187.5,39.2c0,0.2-0.1,0.4-0.2,0.6c-0.3,1.1-1,2.2-2.2,3.2c-1,0.9-2.3,1.3-3.6,1.4v0
		c-0.2,0-0.3,0-0.3,0l-5.7,0l2-9.2l4,0v0l1.2,0c1.7,0,3,0.3,3.7,1c0.7,0.7,1.1,1.5,1.1,2.4C187.6,38.9,187.6,39,187.5,39.2z"/>
	<polygon class="st0" points="162.2,27.6 161.7,27.6 161.4,27.6 152.6,27.6 146.6,54.1 140.1,27.6 125.3,27.6 118.2,61.9
		118.2,61.9 117.7,64.6 118.2,64.6 118.2,64.6 127.3,64.6 132.9,36.4 139.7,64.6 154.2,64.6 161.4,31.3 161.4,31.3 161.4,31.3 	"/>
	<path class="st0" d="M115.2,52.1l-10.8,0.1c-0.2,1.1-0.7,2.2-1.5,3.1c-0.8,0.9-1.8,1.6-2.8,2c-0.4,0.2-0.8,0.3-1.1,0.4
		c-0.3,0.1-0.7,0.1-1,0.1c-0.2,0-0.4,0-0.6,0c-0.2,0-0.4,0-0.6,0c-2.1,0-3.6-0.7-4.3-2c-0.8-1.3-1.1-3-1.1-4.9c0-0.6,0-1.2,0.1-1.8
		c0.1-0.6,0.2-1.2,0.2-1.9c0-0.3,0.1-0.6,0.2-0.9c0-0.3,0.1-0.6,0.2-0.9c0.8-3.7,2-6.4,3.4-8.3c1.5-1.8,2.9-3,4.4-3.5
		c0.3-0.1,0.6-0.1,0.9-0.2c0.3,0,0.6-0.1,0.9-0.1c0.3,0,0.7,0,1.1,0.1c0.4,0,0.8,0.1,1.3,0.2c0.8,0.2,1.6,0.6,2.3,1.2
		c0.7,0.6,1.1,1.5,1.1,2.7c0,0.2,0,0.3,0,0.5c0,0.2,0,0.3-0.1,0.5l11,0v0h0.2c0.2-0.5,0.2-1,0.3-1.5c0.1-0.5,0.1-1,0.1-1.4
		c0-1.2-0.2-2.3-0.5-3.2v0c-0.5-1.3-1.5-2.4-2.7-3.1c-2.2-1.3-4.6-2.1-7.1-2.5c-0.9-0.2-1.8-0.2-2.7-0.3c-0.9-0.1-1.7-0.1-2.5-0.1
		c-6.7,0.1-11.6,1.8-14.9,5c-3.3,3.2-5.5,6.7-6.7,10.4c-0.5,1.7-0.9,3.3-1.1,5c-0.2,1.6-0.3,3.1-0.3,4.5h0v0c0,0.5,0,0.9,0,1.4
		c0,0.4,0,0.9,0.1,1.3c0.3,2.8,1.4,5.4,3.3,7.8c2,2.3,5.8,3.5,11.5,3.5c0.2,0,0.3,0,0.5,0c0.2,0,0.3,0,0.4,0c4.2,0,7.7-0.7,10.3-2.1
		c2.7-1.4,4.7-2.9,6.2-4.6c1-1.2,1.7-2.3,2.1-3.4c0.5-1.1,0.7-1.9,0.7-2.5c0-0.1,0-0.2,0-0.3C115.3,52.3,115.3,52.2,115.2,52.1z"/>
</g>
</svg>
